<svg id="visual" viewBox="0 0 900 600" width="900" height="600" xmlns="http://www.w3.org/2000/svg" xmlns:xlink="http://www.w3.org/1999/xlink" version="1.1"><rect x="0" y="0" width="900" height="600" fill="#4F709C"></rect><defs><linearGradient id="grad1_0" x1="33.3%" y1="100%" x2="100%" y2="0%"><stop offset="20%" stop-color="#d8c4b6" stop-opacity="1"></stop><stop offset="80%" stop-color="#d8c4b6" stop-opacity="1"></stop></linearGradient></defs><defs><linearGradient id="grad1_1" x1="33.3%" y1="100%" x2="100%" y2="0%"><stop offset="20%" stop-color="#d8c4b6" stop-opacity="1"></stop><stop offset="80%" stop-color="#d3b4ab" stop-opacity="1"></stop></linearGradient></defs><defs><linearGradient id="grad1_2" x1="33.3%" y1="100%" x2="100%" y2="0%"><stop offset="20%" stop-color="#cba4a4" stop-opacity="1"></stop><stop offset="80%" stop-color="#d3b4ab" stop-opacity="1"></stop></linearGradient></defs><defs><linearGradient id="grad1_3" x1="33.3%" y1="100%" x2="100%" y2="0%"><stop offset="20%" stop-color="#cba4a4" stop-opacity="1"></stop><stop offset="80%" stop-color="#bf95a1" stop-opacity="1"></stop></linearGradient></defs><defs><linearGradient id="grad1_4" x1="33.3%" y1="100%" x2="100%" y2="0%"><stop offset="20%" stop-color="#ae88a2" stop-opacity="1"></stop><stop offset="80%" stop-color="#bf95a1" stop-opacity="1"></stop></linearGradient></defs><defs><linearGradient id="grad1_5" x1="33.3%" y1="100%" x2="100%" y2="0%"><stop offset="20%" stop-color="#ae88a2" stop-opacity="1"></stop><stop offset="80%" stop-color="#967ea3" stop-opacity="1"></stop></linearGradient></defs><defs><linearGradient id="grad1_6" x1="33.3%" y1="100%" x2="100%" y2="0%"><stop offset="20%" stop-color="#7777a2" stop-opacity="1"></stop><stop offset="80%" stop-color="#967ea3" stop-opacity="1"></stop></linearGradient></defs><defs><linearGradient id="grad1_7" x1="33.3%" y1="100%" x2="100%" y2="0%"><stop offset="20%" stop-color="#7777a2" stop-opacity="1"></stop><stop offset="80%" stop-color="#4f709c" stop-opacity="1"></stop></linearGradient></defs><defs><linearGradient id="grad2_0" x1="0%" y1="100%" x2="66.7%" y2="0%"><stop offset="20%" stop-color="#d8c4b6" stop-opacity="1"></stop><stop offset="80%" stop-color="#d8c4b6" stop-opacity="1"></stop></linearGradient></defs><defs><linearGradient id="grad2_1" x1="0%" y1="100%" x2="66.7%" y2="0%"><stop offset="20%" stop-color="#d3b4ab" stop-opacity="1"></stop><stop offset="80%" stop-color="#d8c4b6" stop-opacity="1"></stop></linearGradient></defs><defs><linearGradient id="grad2_2" x1="0%" y1="100%" x2="66.7%" y2="0%"><stop offset="20%" stop-color="#d3b4ab" stop-opacity="1"></stop><stop offset="80%" stop-color="#cba4a4" stop-opacity="1"></stop></linearGradient></defs><defs><linearGradient id="grad2_3" x1="0%" y1="100%" x2="66.7%" y2="0%"><stop offset="20%" stop-color="#bf95a1" stop-opacity="1"></stop><stop offset="80%" stop-color="#cba4a4" stop-opacity="1"></stop></linearGradient></defs><defs><linearGradient id="grad2_4" x1="0%" y1="100%" x2="66.7%" y2="0%"><stop offset="20%" stop-color="#bf95a1" stop-opacity="1"></stop><stop offset="80%" stop-color="#ae88a2" stop-opacity="1"></stop></linearGradient></defs><defs><linearGradient id="grad2_5" x1="0%" y1="100%" x2="66.7%" y2="0%"><stop offset="20%" stop-color="#967ea3" stop-opacity="1"></stop><stop offset="80%" stop-color="#ae88a2" stop-opacity="1"></stop></linearGradient></defs><defs><linearGradient id="grad2_6" x1="0%" y1="100%" x2="66.7%" y2="0%"><stop offset="20%" stop-color="#967ea3" stop-opacity="1"></stop><stop offset="80%" stop-color="#7777a2" stop-opacity="1"></stop></linearGradient></defs><defs><linearGradient id="grad2_7" x1="0%" y1="100%" x2="66.7%" y2="0%"><stop offset="20%" stop-color="#4f709c" stop-opacity="1"></stop><stop offset="80%" stop-color="#7777a2" stop-opacity="1"></stop></linearGradient></defs><g transform="translate(900, 600)"><path d="M-405.6 0C-389.9 -20.7 -374.2 -41.3 -374.2 -66C-374.3 -90.6 -390 -119.2 -381.2 -138.7C-372.3 -158.2 -338.7 -168.6 -322.2 -186C-305.6 -203.4 -306 -227.8 -298.8 -250.7C-291.5 -273.5 -276.7 -294.8 -255.2 -304.1C-233.7 -313.5 -205.6 -310.9 -184.5 -319.6C-163.4 -328.3 -149.4 -348.2 -131 -359.9C-112.6 -371.6 -89.8 -374.9 -67.2 -381.1C-44.6 -387.4 -22.3 -396.5 0 -405.6L0 0Z" fill="#64739f"></path><path d="M-354.9 0C-341.2 -18.1 -327.4 -36.2 -327.4 -57.7C-327.5 -79.3 -341.3 -104.3 -333.5 -121.4C-325.7 -138.4 -296.4 -147.5 -281.9 -162.8C-267.4 -178 -267.7 -199.4 -261.4 -219.4C-255.1 -239.3 -242.1 -257.9 -223.3 -266.1C-204.5 -274.3 -179.9 -272 -161.4 -279.6C-143 -287.2 -130.7 -304.7 -114.6 -314.9C-98.5 -325.1 -78.5 -328 -58.8 -333.5C-39.1 -338.9 -19.5 -346.9 0 -354.9L0 0Z" fill="#877aa3"></path><path d="M-304.2 0C-292.4 -15.5 -280.6 -31 -280.7 -49.5C-280.7 -68 -292.5 -89.4 -285.9 -104C-279.2 -118.7 -254.1 -126.4 -241.6 -139.5C-229.2 -152.6 -229.5 -170.9 -224.1 -188C-218.6 -205.1 -207.5 -221.1 -191.4 -228.1C-175.3 -235.1 -154.2 -233.1 -138.4 -239.7C-122.6 -246.2 -112.1 -261.2 -98.2 -269.9C-84.4 -278.7 -67.3 -281.2 -50.4 -285.8C-33.5 -290.5 -16.7 -297.4 0 -304.2L0 0Z" fill="#a383a2"></path><path d="M-253.5 0C-243.7 -12.9 -233.9 -25.8 -233.9 -41.2C-233.9 -56.6 -243.8 -74.5 -238.2 -86.7C-232.7 -98.9 -211.7 -105.4 -201.4 -116.3C-191 -127.1 -191.2 -142.4 -186.7 -156.7C-182.2 -171 -172.9 -184.2 -159.5 -190.1C-146.1 -195.9 -128.5 -194.3 -115.3 -199.7C-102.1 -205.2 -93.4 -217.7 -81.9 -224.9C-70.4 -232.2 -56.1 -234.3 -42 -238.2C-27.9 -242.1 -13.9 -247.8 0 -253.5L0 0Z" fill="#b78ea1"></path><path d="M-202.8 0C-195 -10.3 -187.1 -20.7 -187.1 -33C-187.1 -45.3 -195 -59.6 -190.6 -69.4C-186.1 -79.1 -169.4 -84.3 -161.1 -93C-152.8 -101.7 -153 -113.9 -149.4 -125.3C-145.8 -136.8 -138.3 -147.4 -127.6 -152.1C-116.8 -156.7 -102.8 -155.4 -92.3 -159.8C-81.7 -164.1 -74.7 -174.1 -65.5 -180C-56.3 -185.8 -44.9 -187.4 -33.6 -190.6C-22.3 -193.7 -11.2 -198.2 0 -202.8L0 0Z" fill="#c69ca2"></path><path d="M-152.1 0C-146.2 -7.8 -140.3 -15.5 -140.3 -24.7C-140.3 -34 -146.3 -44.7 -142.9 -52C-139.6 -59.3 -127 -63.2 -120.8 -69.8C-114.6 -76.3 -114.7 -85.4 -112 -94C-109.3 -102.6 -103.8 -110.5 -95.7 -114C-87.6 -117.5 -77.1 -116.6 -69.2 -119.8C-61.3 -123.1 -56 -130.6 -49.1 -135C-42.2 -139.3 -33.7 -140.6 -25.2 -142.9C-16.7 -145.3 -8.4 -148.7 0 -152.1L0 0Z" fill="#cfaca7"></path><path d="M-101.4 0C-97.5 -5.2 -93.5 -10.3 -93.6 -16.5C-93.6 -22.7 -97.5 -29.8 -95.3 -34.7C-93.1 -39.6 -84.7 -42.1 -80.5 -46.5C-76.4 -50.9 -76.5 -57 -74.7 -62.7C-72.9 -68.4 -69.2 -73.7 -63.8 -76C-58.4 -78.4 -51.4 -77.7 -46.1 -79.9C-40.9 -82.1 -37.4 -87.1 -32.7 -90C-28.1 -92.9 -22.4 -93.7 -16.8 -95.3C-11.2 -96.8 -5.6 -99.1 0 -101.4L0 0Z" fill="#d5bcb0"></path><path d="M-50.7 0C-48.7 -2.6 -46.8 -5.2 -46.8 -8.2C-46.8 -11.3 -48.8 -14.9 -47.6 -17.3C-46.5 -19.8 -42.3 -21.1 -40.3 -23.3C-38.2 -25.4 -38.2 -28.5 -37.3 -31.3C-36.4 -34.2 -34.6 -36.8 -31.9 -38C-29.2 -39.2 -25.7 -38.9 -23.1 -39.9C-20.4 -41 -18.7 -43.5 -16.4 -45C-14.1 -46.4 -11.2 -46.9 -8.4 -47.6C-5.6 -48.4 -2.8 -49.6 0 -50.7L0 0Z" fill="#d8c4b6"></path></g><g transform="translate(0, 0)"><path d="M405.6 0C392.7 21.5 379.8 42.9 377.2 66.5C374.5 90.1 382.1 115.8 374.9 136.5C367.8 157.1 345.8 172.7 333.4 192.5C321 212.3 318.1 236.5 308.7 259C299.4 281.6 283.6 302.6 260.7 310.7C237.9 318.8 207.9 314 186 322.2C164.1 330.3 150.2 351.5 131.3 360.8C112.4 370.2 88.5 367.7 65.8 373.2C43.1 378.7 21.5 392.2 0 405.6L0 0Z" fill="#64739f"></path><path d="M354.9 0C343.6 18.8 332.4 37.6 330 58.2C327.7 78.8 334.3 101.3 328.1 119.4C321.8 137.5 302.6 151.1 291.7 168.4C280.9 185.8 278.3 206.9 270.1 226.7C261.9 246.4 248.1 264.8 228.1 271.9C208.1 279 181.9 274.7 162.8 281.9C143.6 289 131.4 307.6 114.9 315.7C98.4 323.9 77.5 321.8 57.6 326.6C37.7 331.4 18.9 343.2 0 354.9L0 0Z" fill="#877aa3"></path><path d="M304.2 0C294.5 16.1 284.9 32.2 282.9 49.9C280.9 67.6 286.6 86.9 281.2 102.3C275.8 117.8 259.4 129.5 250.1 144.4C240.7 159.3 238.5 177.4 231.5 194.3C224.5 211.2 212.7 227 195.5 233C178.4 239.1 155.9 235.5 139.5 241.6C123.1 247.7 112.7 263.6 98.5 270.6C84.3 277.6 66.4 275.8 49.4 279.9C32.3 284.1 16.2 294.1 0 304.2L0 0Z" fill="#a383a2"></path><path d="M253.5 0C245.5 13.4 237.4 26.8 235.7 41.6C234.1 56.3 238.8 72.4 234.3 85.3C229.9 98.2 216.2 107.9 208.4 120.3C200.6 132.7 198.8 147.8 192.9 161.9C187.1 176 177.2 189.1 163 194.2C148.7 199.3 129.9 196.2 116.3 201.4C102.6 206.5 93.9 219.7 82.1 225.5C70.3 231.4 55.3 229.8 41.1 233.3C26.9 236.7 13.5 245.1 0 253.5L0 0Z" fill="#b78ea1"></path><path d="M202.8 0C196.4 10.7 189.9 21.5 188.6 33.3C187.3 45 191.1 57.9 187.5 68.2C183.9 78.6 172.9 86.3 166.7 96.2C160.5 106.2 159 118.2 154.4 129.5C149.7 140.8 141.8 151.3 130.4 155.4C118.9 159.4 104 157 93 161.1C82 165.2 75.1 175.7 65.7 180.4C56.2 185.1 44.3 183.9 32.9 186.6C21.5 189.4 10.8 196.1 0 202.8L0 0Z" fill="#c69ca2"></path><path d="M152.1 0C147.3 8 142.4 16.1 141.4 24.9C140.4 33.8 143.3 43.4 140.6 51.2C137.9 58.9 129.7 64.7 125 72.2C120.4 79.6 119.3 88.7 115.8 97.1C112.3 105.6 106.3 113.5 97.8 116.5C89.2 119.6 78 117.7 69.8 120.8C61.5 123.9 56.3 131.8 49.3 135.3C42.2 138.8 33.2 137.9 24.7 140C16.2 142 8.1 147.1 0 152.1L0 0Z" fill="#cfaca7"></path><path d="M101.4 0C98.2 5.4 95 10.7 94.3 16.6C93.6 22.5 95.5 29 93.7 34.1C91.9 39.3 86.5 43.2 83.4 48.1C80.2 53.1 79.5 59.1 77.2 64.8C74.8 70.4 70.9 75.7 65.2 77.7C59.5 79.7 52 78.5 46.5 80.5C41 82.6 37.6 87.9 32.8 90.2C28.1 92.5 22.1 91.9 16.5 93.3C10.8 94.7 5.4 98 0 101.4L0 0Z" fill="#d5bcb0"></path><path d="M50.7 0C49.1 2.7 47.5 5.4 47.1 8.3C46.8 11.3 47.8 14.5 46.9 17.1C46 19.6 43.2 21.6 41.7 24.1C40.1 26.5 39.8 29.6 38.6 32.4C37.4 35.2 35.4 37.8 32.6 38.8C29.7 39.9 26 39.2 23.3 40.3C20.5 41.3 18.8 43.9 16.4 45.1C14.1 46.3 11.1 46 8.2 46.7C5.4 47.3 2.7 49 0 50.7L0 0Z" fill="#d8c4b6"></path></g></svg>